<svg width="14" height="16" viewBox="0 0 14 16" fill="none" xmlns="http://www.w3.org/2000/svg">
<g clip-path="url(#clip0_1_2624)">
<path d="M6.99967 0C7.5528 0 7.99967 0.446875 7.99967 1V1.94062L8.46842 1.47187C8.76217 1.17812 9.23717 1.17812 9.5278 1.47187C9.81842 1.76562 9.82155 2.24062 9.5278 2.53125L7.99655 4.0625V6.25938L9.9153 5.14062L10.4684 3.075C10.5747 2.675 10.9872 2.4375 11.3872 2.54375C11.7872 2.65 12.0247 3.0625 11.9184 3.4625L11.7559 4.06563L12.4934 3.63438C12.9715 3.35625 13.584 3.51875 13.8622 3.99375C14.1403 4.46875 13.9809 5.08438 13.5028 5.3625L12.7122 5.825L13.3903 6.00625C13.7903 6.1125 14.0278 6.525 13.9215 6.925C13.8153 7.325 13.4028 7.5625 13.0028 7.45625L10.8872 6.89062L8.98405 8L10.8872 9.10938L13.0028 8.54375C13.4028 8.4375 13.8153 8.675 13.9215 9.075C14.0278 9.475 13.7903 9.8875 13.3903 9.99375L12.7122 10.175L13.5028 10.6375C13.9809 10.9156 14.1403 11.5281 13.8622 12.0063C13.584 12.4844 12.9715 12.6438 12.4934 12.3656L11.7559 11.9344L11.9184 12.5375C12.0247 12.9375 11.7872 13.35 11.3872 13.4563C10.9872 13.5625 10.5747 13.325 10.4684 12.925L9.9153 10.8594L7.99967 9.74063V11.9375L9.53092 13.4688C9.82467 13.7625 9.82467 14.2375 9.53092 14.5281C9.23717 14.8187 8.76217 14.8219 8.47155 14.5281L8.0028 14.0594V15C8.0028 15.5531 7.55592 16 7.0028 16C6.44967 16 6.0028 15.5531 6.0028 15V14.0594L5.53405 14.5281C5.2403 14.8219 4.7653 14.8219 4.47467 14.5281C4.18405 14.2344 4.18092 13.7594 4.47467 13.4688L6.00592 11.9375V9.74063L4.08717 10.8594L3.53405 12.925C3.4278 13.325 3.0153 13.5625 2.6153 13.4563C2.2153 13.35 1.9778 12.9375 2.08405 12.5375L2.24655 11.9344L1.5028 12.3625C1.02467 12.6406 0.412171 12.4781 0.134046 12.0031C-0.144079 11.5281 0.0184209 10.9125 0.493421 10.6344L1.28405 10.1719L0.605921 9.99063C0.205921 9.88438 -0.0315791 9.47187 0.0746709 9.07187C0.180921 8.67188 0.593421 8.43437 0.993421 8.54062L3.10905 9.10625L5.0153 8L3.11217 6.89062L0.996546 7.45625C0.596546 7.5625 0.184046 7.325 0.0777959 6.925C-0.0284541 6.525 0.209046 6.1125 0.609046 6.00625L1.28717 5.825L0.496546 5.3625C0.0184208 5.08438 -0.140954 4.47188 0.137171 3.99688C0.415296 3.52188 1.0278 3.35938 1.50592 3.6375L2.24342 4.06875L2.08092 3.46563C1.97467 3.06562 2.21217 2.65313 2.61217 2.54688C3.01217 2.44062 3.42467 2.67812 3.53092 3.07812L4.08405 5.14375L5.99967 6.25938V4.05937L4.46842 2.53125C4.17467 2.2375 4.17467 1.7625 4.46842 1.47187C4.76217 1.18125 5.23717 1.17812 5.5278 1.47187L5.99655 1.94062V1C5.99655 0.446875 6.44342 0 6.99655 0H6.99967Z" fill="#404040"/>
</g>
<defs>
<clipPath id="clip0_1_2624">
<path d="M0 0H14V16H0V0Z" fill="white"/>
</clipPath>
</defs>
</svg>
