<svg width="15" height="14" viewBox="0 0 15 14" fill="none" xmlns="http://www.w3.org/2000/svg">
<path d="M5.20508 1.60693V2.70068H9.58008V1.60693C9.58008 1.48662 9.48164 1.38818 9.36133 1.38818H5.42383C5.30352 1.38818 5.20508 1.48662 5.20508 1.60693ZM3.89258 2.70068V1.60693C3.89258 0.762012 4.57891 0.0756836 5.42383 0.0756836H9.36133C10.2063 0.0756836 10.8926 0.762012 10.8926 1.60693V2.70068V3.57568V13.2007H3.89258V3.57568V2.70068ZM2.14258 2.70068H3.01758V13.2007H2.14258C1.17734 13.2007 0.392578 12.4159 0.392578 11.4507V4.45068C0.392578 3.48545 1.17734 2.70068 2.14258 2.70068ZM12.6426 13.2007H11.7676V2.70068H12.6426C13.6078 2.70068 14.3926 3.48545 14.3926 4.45068V11.4507C14.3926 12.4159 13.6078 13.2007 12.6426 13.2007Z" fill="#737373"/>
</svg>
