<svg width="16" height="20" viewBox="0 0 16 20" fill="none" xmlns="http://www.w3.org/2000/svg">
<path d="M15.252 20.0039H0.251953V0.00390625H15.252V20.0039Z" stroke="#E5E7EB"/>
<g clip-path="url(#clip0_1_7026)">
<path d="M2.12695 0.00390625C1.0918 0.00390625 0.251953 0.84375 0.251953 1.87891V18.1289C0.251953 19.1641 1.0918 20.0039 2.12695 20.0039H5.87695V16.8789C5.87695 15.8438 6.7168 15.0039 7.75195 15.0039C8.78711 15.0039 9.62695 15.8438 9.62695 16.8789V20.0039H13.377C14.4121 20.0039 15.252 19.1641 15.252 18.1289V1.87891C15.252 0.84375 14.4121 0.00390625 13.377 0.00390625H2.12695ZM2.75195 9.37891C2.75195 9.03516 3.0332 8.75391 3.37695 8.75391H4.62695C4.9707 8.75391 5.25195 9.03516 5.25195 9.37891V10.6289C5.25195 10.9727 4.9707 11.2539 4.62695 11.2539H3.37695C3.0332 11.2539 2.75195 10.9727 2.75195 10.6289V9.37891ZM7.12695 8.75391H8.37695C8.7207 8.75391 9.00195 9.03516 9.00195 9.37891V10.6289C9.00195 10.9727 8.7207 11.2539 8.37695 11.2539H7.12695C6.7832 11.2539 6.50195 10.9727 6.50195 10.6289V9.37891C6.50195 9.03516 6.7832 8.75391 7.12695 8.75391ZM10.252 9.37891C10.252 9.03516 10.5332 8.75391 10.877 8.75391H12.127C12.4707 8.75391 12.752 9.03516 12.752 9.37891V10.6289C12.752 10.9727 12.4707 11.2539 12.127 11.2539H10.877C10.5332 11.2539 10.252 10.9727 10.252 10.6289V9.37891ZM3.37695 3.75391H4.62695C4.9707 3.75391 5.25195 4.03516 5.25195 4.37891V5.62891C5.25195 5.97266 4.9707 6.25391 4.62695 6.25391H3.37695C3.0332 6.25391 2.75195 5.97266 2.75195 5.62891V4.37891C2.75195 4.03516 3.0332 3.75391 3.37695 3.75391ZM6.50195 4.37891C6.50195 4.03516 6.7832 3.75391 7.12695 3.75391H8.37695C8.7207 3.75391 9.00195 4.03516 9.00195 4.37891V5.62891C9.00195 5.97266 8.7207 6.25391 8.37695 6.25391H7.12695C6.7832 6.25391 6.50195 5.97266 6.50195 5.62891V4.37891ZM10.877 3.75391H12.127C12.4707 3.75391 12.752 4.03516 12.752 4.37891V5.62891C12.752 5.97266 12.4707 6.25391 12.127 6.25391H10.877C10.5332 6.25391 10.252 5.97266 10.252 5.62891V4.37891C10.252 4.03516 10.5332 3.75391 10.877 3.75391Z" fill="white"/>
</g>
<defs>
<clipPath id="clip0_1_7026">
<path d="M0.251953 0.00390625H15.252V20.0039H0.251953V0.00390625Z" fill="white"/>
</clipPath>
</defs>
</svg>
