<svg width="15" height="16" viewBox="0 0 15 16" fill="none" xmlns="http://www.w3.org/2000/svg">
<g clip-path="url(#clip0_1_3898)">
<path d="M5.53125 0.75C5.53125 0.334375 5.19688 0 4.78125 0C4.36562 0 4.03125 0.334375 4.03125 0.75V2H2.78125C1.67813 2 0.78125 2.89687 0.78125 4V4.5V6V14C0.78125 15.1031 1.67813 16 2.78125 16H12.7812C13.8844 16 14.7812 15.1031 14.7812 14V6V4.5V4C14.7812 2.89687 13.8844 2 12.7812 2H11.5312V0.75C11.5312 0.334375 11.1969 0 10.7812 0C10.3656 0 10.0312 0.334375 10.0312 0.75V2H5.53125V0.75ZM2.28125 6H13.2812V14C13.2812 14.275 13.0562 14.5 12.7812 14.5H2.78125C2.50625 14.5 2.28125 14.275 2.28125 14V6Z" fill="#525252"/>
</g>
<defs>
<clipPath id="clip0_1_3898">
<path d="M0.78125 0H14.7812V16H0.78125V0Z" fill="white"/>
</clipPath>
</defs>
</svg>
