<svg width="15" height="15" viewBox="0 0 15 15" fill="none" xmlns="http://www.w3.org/2000/svg">
<g clip-path="url(#clip0_1_5654)">
<path d="M7.01562 14.75C8.87214 14.75 10.6526 14.0125 11.9654 12.6997C13.2781 11.387 14.0156 9.60652 14.0156 7.75C14.0156 5.89348 13.2781 4.11301 11.9654 2.80025C10.6526 1.4875 8.87214 0.75 7.01562 0.75C5.15911 0.75 3.37863 1.4875 2.06588 2.80025C0.753123 4.11301 0.015625 5.89348 0.015625 7.75C0.015625 9.60652 0.753123 11.387 2.06588 12.6997C3.37863 14.0125 5.15911 14.75 7.01562 14.75ZM4.80078 5.53516C5.05781 5.27812 5.47344 5.27812 5.72773 5.53516L7.01289 6.82031L8.29805 5.53516C8.55508 5.27812 8.9707 5.27812 9.225 5.53516C9.4793 5.79219 9.48203 6.20781 9.225 6.46211L7.93984 7.74727L9.225 9.03242C9.48203 9.28945 9.48203 9.70508 9.225 9.95937C8.96797 10.2137 8.55234 10.2164 8.29805 9.95937L7.01289 8.67422L5.72773 9.95937C5.4707 10.2164 5.05508 10.2164 4.80078 9.95937C4.54648 9.70234 4.54375 9.28672 4.80078 9.03242L6.08594 7.74727L4.80078 6.46211C4.54375 6.20508 4.54375 5.78945 4.80078 5.53516Z" fill="black"/>
</g>
<defs>
<clipPath id="clip0_1_5654">
<path d="M0.015625 0.75H14.0156V14.75H0.015625V0.75Z" fill="white"/>
</clipPath>
</defs>
</svg>
