<svg width="14" height="15" viewBox="0 0 14 15" fill="none" xmlns="http://www.w3.org/2000/svg">
<path d="M7.65778 1.38818V7.07568H8.97028V1.68076C9.6238 2.05811 10.064 2.76631 10.064 3.57568V7.07568H11.3765V3.57568C11.3765 1.64248 9.80974 0.0756836 7.87653 0.0756836H6.12653C4.19333 0.0756836 2.62653 1.64248 2.62653 3.57568V7.07568H3.93903V3.57568C3.93903 2.76631 4.37927 2.05811 5.03278 1.68076V7.07568H6.34528V1.38818H7.65778ZM2.18903 7.95068C1.85817 7.95068 1.55466 8.13662 1.407 8.43467L0.969503 9.30967C0.832784 9.58037 0.849191 9.90303 1.00778 10.1601C1.16638 10.4171 1.44802 10.5757 1.75153 10.5757V13.2007C1.75153 13.6847 2.14255 14.0757 2.62653 14.0757C3.11052 14.0757 3.50153 13.6847 3.50153 13.2007V10.5757H10.5015V13.2007C10.5015 13.6847 10.8926 14.0757 11.3765 14.0757C11.8605 14.0757 12.2515 13.6847 12.2515 13.2007V10.5757C12.5551 10.5757 12.8367 10.4198 12.9953 10.1601C13.1539 9.90029 13.1703 9.58037 13.0336 9.30967L12.5961 8.43467C12.4484 8.13662 12.1449 7.95068 11.814 7.95068H2.18903Z" fill="#737373"/>
</svg>
