<svg width="80" height="80" viewBox="0 0 80 80" fill="none" xmlns="http://www.w3.org/2000/svg">
<path d="M40 0C62.0914 0 80 17.9086 80 40C80 62.0914 62.0914 80 40 80C17.9086 80 0 62.0914 0 40C0 17.9086 17.9086 0 40 0Z" fill="#E5E5E5"/>
<path d="M40 0C62.0914 0 80 17.9086 80 40C80 62.0914 62.0914 80 40 80C17.9086 80 0 62.0914 0 40C0 17.9086 17.9086 0 40 0Z" stroke="#E5E7EB"/>
<path d="M55.75 58H24.25V22H55.75V58Z" stroke="#E5E7EB"/>
<g clip-path="url(#clip0_1_7157)">
<path d="M55.0895 29.4109C55.9684 30.2898 55.9684 31.7171 55.0895 32.596L37.0895 50.596C36.2105 51.475 34.7832 51.475 33.9043 50.596L24.9043 41.596C24.0254 40.7171 24.0254 39.2898 24.9043 38.4109C25.7832 37.532 27.2105 37.532 28.0895 38.4109L35.5004 45.8148L51.9113 29.4109C52.7902 28.532 54.2176 28.532 55.0965 29.4109H55.0895Z" fill="white"/>
</g>
<defs>
<clipPath id="clip0_1_7157">
<path d="M24.25 22H55.75V58H24.25V22Z" fill="white"/>
</clipPath>
</defs>
</svg>
