<svg width="21" height="20" viewBox="0 0 21 20" fill="none" xmlns="http://www.w3.org/2000/svg">
<g clip-path="url(#clip0_1_7033)">
<g clip-path="url(#clip1_1_7033)">
<path d="M10.752 20.0039C13.4041 20.0039 15.9477 18.9503 17.823 17.075C19.6984 15.1996 20.752 12.6561 20.752 10.0039C20.752 7.35174 19.6984 4.8082 17.823 2.93284C15.9477 1.05747 13.4041 0.00390625 10.752 0.00390625C8.09979 0.00390625 5.55625 1.05747 3.68089 2.93284C1.80552 4.8082 0.751953 7.35174 0.751953 10.0039C0.751953 12.6561 1.80552 15.1996 3.68089 17.075C5.55625 18.9503 8.09979 20.0039 10.752 20.0039ZM15.166 8.16797L10.166 13.168C9.79883 13.5352 9.20508 13.5352 8.8418 13.168L6.3418 10.668C5.97461 10.3008 5.97461 9.70703 6.3418 9.34375C6.70898 8.98047 7.30273 8.97656 7.66602 9.34375L9.50195 11.1797L13.8379 6.83984C14.2051 6.47266 14.7988 6.47266 15.1621 6.83984C15.5254 7.20703 15.5293 7.80078 15.1621 8.16406L15.166 8.16797Z" fill="#525252"/>
</g>
</g>
<defs>
<clipPath id="clip0_1_7033">
<rect width="20" height="20" fill="white" transform="translate(0.751953 0.00390625)"/>
</clipPath>
<clipPath id="clip1_1_7033">
<path d="M0.751953 0.00390625H20.752V20.0039H0.751953V0.00390625Z" fill="white"/>
</clipPath>
</defs>
</svg>
