<svg width="20" height="32" viewBox="0 0 20 32" fill="none" xmlns="http://www.w3.org/2000/svg">
<g clip-path="url(#clip0_0_3243)">
<path d="M10 19.25C9.53587 19.25 9.09075 19.4344 8.76256 19.7626C8.43437 20.0908 8.25 20.5359 8.25 21C8.25 21.4641 8.43437 21.9092 8.76256 22.2374C9.09075 22.5656 9.53587 22.75 10 22.75C10.4641 22.75 10.9092 22.5656 11.2374 22.2374C11.5656 21.9092 11.75 21.4641 11.75 21C11.75 20.5359 11.5656 20.0908 11.2374 19.7626C10.9092 19.4344 10.4641 19.25 10 19.25ZM10 14.25C9.53587 14.25 9.09075 14.4344 8.76256 14.7626C8.43437 15.0908 8.25 15.5359 8.25 16C8.25 16.4641 8.43437 16.9092 8.76256 17.2374C9.09075 17.5656 9.53587 17.75 10 17.75C10.4641 17.75 10.9092 17.5656 11.2374 17.2374C11.5656 16.9092 11.75 16.4641 11.75 16C11.75 15.5359 11.5656 15.0908 11.2374 14.7626C10.9092 14.4344 10.4641 14.25 10 14.25ZM11.75 11C11.75 10.5359 11.5656 10.0908 11.2374 9.76256C10.9092 9.43437 10.4641 9.25 10 9.25C9.53587 9.25 9.09075 9.43437 8.76256 9.76256C8.43437 10.0908 8.25 10.5359 8.25 11C8.25 11.4641 8.43437 11.9092 8.76256 12.2374C9.09075 12.5656 9.53587 12.75 10 12.75C10.4641 12.75 10.9092 12.5656 11.2374 12.2374C11.5656 11.9092 11.75 11.4641 11.75 11Z" fill="black"/>
</g>
<defs>
<clipPath id="clip0_0_3243">
<rect width="4" height="16" fill="white" transform="translate(8 8)"/>
</clipPath>
</defs>
</svg>
