<svg width="15" height="14" viewBox="0 0 15 14" fill="none" xmlns="http://www.w3.org/2000/svg">
<g clip-path="url(#clip0_0_2113)">
<g clip-path="url(#clip1_0_2113)">
<path d="M8.5 0.875C8.5 0.391016 8.10898 0 7.625 0C7.14102 0 6.75 0.391016 6.75 0.875V7.51133L4.74297 5.5043C4.40117 5.1625 3.84609 5.1625 3.5043 5.5043C3.1625 5.84609 3.1625 6.40117 3.5043 6.74297L7.0043 10.243C7.34609 10.5848 7.90117 10.5848 8.24297 10.243L11.743 6.74297C12.0848 6.40117 12.0848 5.84609 11.743 5.5043C11.4012 5.1625 10.8461 5.1625 10.5043 5.5043L8.5 7.51133V0.875ZM2.375 9.625C1.40977 9.625 0.625 10.4098 0.625 11.375V12.25C0.625 13.2152 1.40977 14 2.375 14H12.875C13.8402 14 14.625 13.2152 14.625 12.25V11.375C14.625 10.4098 13.8402 9.625 12.875 9.625H10.0996L8.86094 10.8637C8.17734 11.5473 7.06992 11.5473 6.38633 10.8637L5.15039 9.625H2.375ZM12.4375 11.1562C12.6115 11.1562 12.7785 11.2254 12.9015 11.3485C13.0246 11.4715 13.0938 11.6385 13.0938 11.8125C13.0938 11.9865 13.0246 12.1535 12.9015 12.2765C12.7785 12.3996 12.6115 12.4688 12.4375 12.4688C12.2635 12.4688 12.0965 12.3996 11.9735 12.2765C11.8504 12.1535 11.7812 11.9865 11.7812 11.8125C11.7812 11.6385 11.8504 11.4715 11.9735 11.3485C12.0965 11.2254 12.2635 11.1562 12.4375 11.1562Z" fill="black"/>
</g>
</g>
<defs>
<clipPath id="clip0_0_2113">
<rect width="14" height="14" fill="white" transform="translate(0.625)"/>
</clipPath>
<clipPath id="clip1_0_2113">
<rect width="14" height="14" fill="white" transform="translate(0.625)"/>
</clipPath>
</defs>
</svg>
