<svg width="18" height="16" viewBox="0 0 18 16" fill="none" xmlns="http://www.w3.org/2000/svg">
<g clip-path="url(#clip0_0_3135)">
<path d="M0 3.51566V13.1969C0 13.7594 0.315625 14.2907 0.84375 14.4875C3.5625 15.5032 6.28125 14.8094 9 14.1157C11.4937 13.4813 13.9875 12.8438 16.4781 13.525C17.1969 13.7219 18 13.2282 18 12.4813V2.80316C18 2.24066 17.6844 1.70941 17.1562 1.51254C14.4375 0.496914 11.7188 1.19066 9 1.88441C6.50625 2.51879 4.0125 3.15316 1.52188 2.47191C0.8 2.27504 0 2.76879 0 3.51566ZM9 11C7.61875 11 6.5 9.65629 6.5 8.00004C6.5 6.34379 7.61875 5.00004 9 5.00004C10.3813 5.00004 11.5 6.34379 11.5 8.00004C11.5 9.65629 10.3813 11 9 11ZM2 11C3.10313 11 4 11.8969 4 13H2V11ZM4 4.50004C4 5.60316 3.10313 6.50004 2 6.50004V4.50004H4ZM16 9.50004V11.5H14C14 10.3969 14.8969 9.50004 16 9.50004ZM14 3.00004H16V5.00004C14.8969 5.00004 14 4.10316 14 3.00004Z" fill="#525252"/>
</g>
<defs>
<clipPath id="clip0_0_3135">
<rect width="18" height="16" fill="white"/>
</clipPath>
</defs>
</svg>
