<svg width="18" height="20" viewBox="0 0 18 20" fill="none" xmlns="http://www.w3.org/2000/svg">
<g clip-path="url(#clip0_1_2442)">
<path d="M14.7266 3.27344C13.7734 2.32031 12.2266 2.32031 11.2734 3.27344L4.08594 10.4609C2.44141 12.1055 2.44141 14.7695 4.08594 16.4141C5.73047 18.0586 8.39453 18.0586 10.0391 16.4141L15.9766 10.4766C16.4023 10.0508 17.0977 10.0508 17.5234 10.4766C17.9492 10.9023 17.9492 11.5977 17.5234 12.0234L11.5859 17.9609C9.08594 20.4609 5.03906 20.4609 2.53906 17.9609C0.0390625 15.4609 0.0390625 11.4141 2.53906 8.91406L9.72656 1.72656C11.5352 -0.0820313 14.4648 -0.0820313 16.2734 1.72656C18.082 3.53516 18.082 6.46484 16.2734 8.27344L9.39844 15.1484C8.28125 16.2656 6.46875 16.2656 5.35156 15.1484C4.23438 14.0312 4.23438 12.2188 5.35156 11.1016L10.9766 5.47656C11.4023 5.05078 12.0977 5.05078 12.5234 5.47656C12.9492 5.90234 12.9492 6.59766 12.5234 7.02344L6.89844 12.6484C6.63672 12.9102 6.63672 13.3398 6.89844 13.6016C7.16016 13.8633 7.58984 13.8633 7.85156 13.6016L14.7266 6.72656C15.6797 5.77344 15.6797 4.22656 14.7266 3.27344Z" fill="#525252"/>
</g>
<defs>
<clipPath id="clip0_1_2442">
<path d="M0.5 0H18V20H0.5V0Z" fill="white"/>
</clipPath>
</defs>
</svg>
