<svg width="17" height="17" viewBox="0 0 17 17" fill="none" xmlns="http://www.w3.org/2000/svg">
<g clip-path="url(#clip0_1_4433)">
<g clip-path="url(#clip1_1_4433)">
<path d="M0.51429 1.79131C0.72054 1.35381 1.15804 1.07568 1.64241 1.07568H15.1424C15.6268 1.07568 16.0643 1.35381 16.2705 1.79131C16.4768 2.22881 16.4143 2.74443 16.108 3.11943L10.3924 10.1038V14.0757C10.3924 14.4538 10.1799 14.8007 9.83929 14.9694C9.49866 15.1382 9.09554 15.1038 8.79241 14.8757L6.79241 13.3757C6.53929 13.1882 6.39241 12.8913 6.39241 12.5757V10.1038L0.673665 3.11631C0.37054 2.74443 0.304915 2.22568 0.51429 1.79131Z" fill="#404040"/>
</g>
</g>
<defs>
<clipPath id="clip0_1_4433">
<rect width="16" height="16" fill="white" transform="translate(0.392578 0.0756836)"/>
</clipPath>
<clipPath id="clip1_1_4433">
<path d="M0.392578 0.0756836H16.3926V16.0757H0.392578V0.0756836Z" fill="white"/>
</clipPath>
</defs>
</svg>
