<svg width="17" height="15" viewBox="0 0 17 15" fill="none" xmlns="http://www.w3.org/2000/svg">
<g clip-path="url(#clip0_1_4108)">
<path d="M3.01758 0.0756836C2.05234 0.0756836 1.26758 0.860449 1.26758 1.82568V12.3257C0.783594 12.3257 0.392578 12.7167 0.392578 13.2007C0.392578 13.6847 0.783594 14.0757 1.26758 14.0757H9.14258C9.62656 14.0757 10.0176 13.6847 10.0176 13.2007C10.0176 12.7167 9.62656 12.3257 9.14258 12.3257V8.38818H9.58008C10.1844 8.38818 10.6738 8.87764 10.6738 9.48193V10.3569C10.6738 11.4452 11.5543 12.3257 12.6426 12.3257C13.7309 12.3257 14.6113 11.4452 14.6113 10.3569V6.97451C15.5 6.69561 16.1426 5.86709 16.1426 4.88818V4.01318C16.1426 3.77256 15.9457 3.57568 15.7051 3.57568H15.2676V2.26318C15.2676 2.02256 15.0707 1.82568 14.8301 1.82568C14.5895 1.82568 14.3926 2.02256 14.3926 2.26318V3.57568H13.5176V2.26318C13.5176 2.02256 13.3207 1.82568 13.0801 1.82568C12.8395 1.82568 12.6426 2.02256 12.6426 2.26318V3.57568H12.2051C11.9645 3.57568 11.7676 3.77256 11.7676 4.01318V4.88818C11.7676 5.86709 12.4102 6.69561 13.2988 6.97451V10.3569C13.2988 10.7206 13.0063 11.0132 12.6426 11.0132C12.2789 11.0132 11.9863 10.7206 11.9863 10.3569V9.48193C11.9863 8.15303 10.909 7.07568 9.58008 7.07568H9.14258V1.82568C9.14258 0.860449 8.35781 0.0756836 7.39258 0.0756836H3.01758ZM6.32344 2.33701C6.4875 2.44639 6.55586 2.65146 6.4957 2.8374L5.81211 4.88545H7.39258C7.57578 4.88545 7.73984 5.00029 7.80273 5.16982C7.86562 5.33936 7.81641 5.5335 7.67695 5.65381L4.61445 8.27881C4.46406 8.40732 4.24805 8.41826 4.08672 8.30889C3.92539 8.19951 3.8543 7.99443 3.91445 7.8085L4.59805 5.76045H3.01758C2.83437 5.76045 2.67031 5.64561 2.60742 5.47607C2.54453 5.30654 2.59375 5.1124 2.7332 4.99209L5.7957 2.36709C5.94609 2.23857 6.16211 2.22764 6.32344 2.33701Z" fill="#737373"/>
</g>
<defs>
<clipPath id="clip0_1_4108">
<path d="M0.392578 0.0756836H16.1426V14.0757H0.392578V0.0756836Z" fill="white"/>
</clipPath>
</defs>
</svg>
