<svg width="54" height="61" viewBox="0 0 54 61" fill="none" xmlns="http://www.w3.org/2000/svg">
<g clip-path="url(#clip0_1_6113)">
<path d="M17.625 17.375V23H36.375V17.375C36.375 12.1953 32.1797 8 27 8C21.8203 8 17.625 12.1953 17.625 17.375ZM10.125 23V17.375C10.125 8.05859 17.6836 0.5 27 0.5C36.3164 0.5 43.875 8.05859 43.875 17.375V23H45.75C49.8867 23 53.25 26.3633 53.25 30.5V53C53.25 57.1367 49.8867 60.5 45.75 60.5H8.25C4.11328 60.5 0.75 57.1367 0.75 53V30.5C0.75 26.3633 4.11328 23 8.25 23H10.125Z" fill="#404040"/>
</g>
<defs>
<clipPath id="clip0_1_6113">
<path d="M0.75 0.5H53.25V60.5H0.75V0.5Z" fill="white"/>
</clipPath>
</defs>
</svg>
