<svg width="15" height="16" viewBox="0 0 15 16" fill="none" xmlns="http://www.w3.org/2000/svg">
<path d="M4.7207 4.50391V6.00391H9.7207V4.50391C9.7207 3.12266 8.60195 2.00391 7.2207 2.00391C5.83945 2.00391 4.7207 3.12266 4.7207 4.50391ZM2.7207 6.00391V4.50391C2.7207 2.01953 4.73633 0.00390625 7.2207 0.00390625C9.70508 0.00390625 11.7207 2.01953 11.7207 4.50391V6.00391H12.2207C13.3238 6.00391 14.2207 6.90078 14.2207 8.00391V14.0039C14.2207 15.107 13.3238 16.0039 12.2207 16.0039H2.2207C1.11758 16.0039 0.220703 15.107 0.220703 14.0039V8.00391C0.220703 6.90078 1.11758 6.00391 2.2207 6.00391H2.7207Z" fill="#A3A3A3"/>
</svg>
