<svg width="358" height="200" viewBox="0 0 358 200" fill="none" xmlns="http://www.w3.org/2000/svg">
<path d="M350 0C354.418 0 358 3.58172 358 8V192C358 196.418 354.418 200 350 200H8C3.58172 200 0 196.418 0 192V8C2.06162e-06 3.58172 3.58172 0 8 0H350Z" fill="#D4D4D4"/>
<path d="M350 0C354.418 0 358 3.58172 358 8V192C358 196.418 354.418 200 350 200H8C3.58172 200 0 196.418 0 192V8C2.06162e-06 3.58172 3.58172 0 8 0H350Z" stroke="#E5E7EB"/>
<path d="M199.25 118H158.75V82H199.25V118Z" stroke="#E5E7EB"/>
<g clip-path="url(#clip0_1_5574)">
<path d="M187.438 90.4375C187.438 94.2766 182.298 101.118 180.041 103.938C179.499 104.612 178.494 104.612 177.959 103.938C175.702 101.118 170.562 94.2766 170.562 90.4375C170.562 85.7758 174.338 82 179 82C183.662 82 187.438 85.7758 187.438 90.4375ZM188 96.0906C188.246 95.6055 188.471 95.1203 188.675 94.6422C188.71 94.5578 188.745 94.4664 188.78 94.382L196.937 91.1195C198.048 90.6766 199.25 91.4922 199.25 92.6875V111.728C199.25 112.417 198.828 113.036 198.188 113.296L188 117.367V96.0906ZM168.425 91.7242C168.594 92.7156 168.931 93.7141 169.325 94.6422C169.529 95.1203 169.754 95.6055 170 96.0906V113.767L161.063 117.346C159.952 117.789 158.75 116.973 158.75 115.778V96.7375C158.75 96.0484 159.172 95.4297 159.812 95.1695L168.432 91.7242H168.425ZM181.798 105.344C182.776 104.12 184.309 102.13 185.75 99.9297V117.459L172.25 113.598V99.9297C173.691 102.13 175.224 104.12 176.202 105.344C177.643 107.144 180.357 107.144 181.798 105.344ZM179 92.6875C179.746 92.6875 180.461 92.3912 180.989 91.8637C181.516 91.3363 181.812 90.6209 181.812 89.875C181.812 89.1291 181.516 88.4137 180.989 87.8863C180.461 87.3588 179.746 87.0625 179 87.0625C178.254 87.0625 177.539 87.3588 177.011 87.8863C176.484 88.4137 176.188 89.1291 176.188 89.875C176.188 90.6209 176.484 91.3363 177.011 91.8637C177.539 92.3912 178.254 92.6875 179 92.6875Z" fill="white"/>
</g>
<defs>
<clipPath id="clip0_1_5574">
<path d="M158.75 82H199.25V118H158.75V82Z" fill="white"/>
</clipPath>
</defs>
</svg>
