<svg width="19" height="16" viewBox="0 0 19 16" fill="none" xmlns="http://www.w3.org/2000/svg">
<g clip-path="url(#clip0_1_4676)">
<path d="M18.0656 1.13126C18.2687 1.27188 18.3906 1.50313 18.3906 1.75001V12.25C18.3906 12.5625 18.1969 12.8406 17.9062 12.95L12.6562 14.95C12.4937 15.0125 12.3156 15.0156 12.1531 14.9594L6.40625 13.0469L1.40625 14.9531C1.175 15.0406 0.915625 15.0094 0.7125 14.8688C0.509375 14.7281 0.390625 14.4969 0.390625 14.25V3.75001C0.390625 3.43751 0.58125 3.15938 0.875 3.05001L6.125 1.05001C6.2875 0.987506 6.46563 0.984381 6.62813 1.04063L12.375 2.95313L17.375 1.04688C17.6063 0.959381 17.8656 0.990632 18.0688 1.13126H18.0656ZM1.89062 4.26563V13.1625L5.64062 11.7344V2.83751L1.89062 4.26563ZM11.6406 13.2094V4.29063L7.14062 2.79063V11.7094L11.6406 13.2094ZM13.1406 13.1625L16.8906 11.7344V2.83751L13.1406 4.26563V13.1625Z" fill="#404040"/>
</g>
<defs>
<clipPath id="clip0_1_4676">
<path d="M0.390625 0H18.3906V16H0.390625V0Z" fill="white"/>
</clipPath>
</defs>
</svg>
