<svg width="23" height="26" viewBox="0 0 23 26" fill="none" xmlns="http://www.w3.org/2000/svg">
<path d="M11.75 0C17.9632 0 23 5.0368 23 11.25V14.75C23 20.9632 17.9632 26 11.75 26C5.5368 26 0.5 20.9632 0.5 14.75V11.25C0.5 5.0368 5.5368 0 11.75 0Z" fill="#F5F5F5"/>
<path d="M11.75 0C17.9632 0 23 5.0368 23 11.25V14.75C23 20.9632 17.9632 26 11.75 26C5.5368 26 0.5 20.9632 0.5 14.75V11.25C0.5 5.0368 5.5368 0 11.75 0Z" stroke="#E5E7EB"/>
<path d="M17 21.25H6.5V4.25H17V21.25Z" stroke="#E5E7EB"/>
<g clip-path="url(#clip0_0_756)">
<path d="M11.75 6C10.3008 6 9.125 7.17578 9.125 8.625V13C9.125 14.4492 10.3008 15.625 11.75 15.625C13.1992 15.625 14.375 14.4492 14.375 13V8.625C14.375 7.17578 13.1992 6 11.75 6ZM8.25 11.9062C8.25 11.5426 7.95742 11.25 7.59375 11.25C7.23008 11.25 6.9375 11.5426 6.9375 11.9062V13C6.9375 15.4363 8.74766 17.4488 11.0938 17.7688V18.6875H9.78125C9.41758 18.6875 9.125 18.9801 9.125 19.3438C9.125 19.7074 9.41758 20 9.78125 20H11.75H13.7188C14.0824 20 14.375 19.7074 14.375 19.3438C14.375 18.9801 14.0824 18.6875 13.7188 18.6875H12.4062V17.7688C14.7523 17.4488 16.5625 15.4363 16.5625 13V11.9062C16.5625 11.5426 16.2699 11.25 15.9062 11.25C15.5426 11.25 15.25 11.5426 15.25 11.9062V13C15.25 14.9332 13.6832 16.5 11.75 16.5C9.8168 16.5 8.25 14.9332 8.25 13V11.9062Z" fill="black"/>
</g>
<defs>
<clipPath id="clip0_0_756">
<path d="M6.5 6H17V20H6.5V6Z" fill="white"/>
</clipPath>
</defs>
</svg>
