<svg width="15" height="20" viewBox="0 0 15 20" fill="none" xmlns="http://www.w3.org/2000/svg">
<g clip-path="url(#clip0_1_3507)">
<g clip-path="url(#clip1_1_3507)">
<path d="M7.5 0C5.42969 0 3.75 1.67969 3.75 3.75V10C3.75 12.0703 5.42969 13.75 7.5 13.75C9.57031 13.75 11.25 12.0703 11.25 10V3.75C11.25 1.67969 9.57031 0 7.5 0ZM2.5 8.4375C2.5 7.91797 2.08203 7.5 1.5625 7.5C1.04297 7.5 0.625 7.91797 0.625 8.4375V10C0.625 13.4805 3.21094 16.3555 6.5625 16.8125V18.125H4.6875C4.16797 18.125 3.75 18.543 3.75 19.0625C3.75 19.582 4.16797 20 4.6875 20H7.5H10.3125C10.832 20 11.25 19.582 11.25 19.0625C11.25 18.543 10.832 18.125 10.3125 18.125H8.4375V16.8125C11.7891 16.3555 14.375 13.4805 14.375 10V8.4375C14.375 7.91797 13.957 7.5 13.4375 7.5C12.918 7.5 12.5 7.91797 12.5 8.4375V10C12.5 12.7617 10.2617 15 7.5 15C4.73828 15 2.5 12.7617 2.5 10V8.4375Z" fill="#404040"/>
</g>
</g>
<defs>
<clipPath id="clip0_1_3507">
<rect width="15" height="20" fill="white"/>
</clipPath>
<clipPath id="clip1_1_3507">
<path d="M0 0H15V20H0V0Z" fill="white"/>
</clipPath>
</defs>
</svg>
