<svg width="15" height="15" viewBox="0 0 15 15" fill="none" xmlns="http://www.w3.org/2000/svg">
<path d="M14.0398 0.247961C14.2613 0.412024 14.3926 0.674524 14.3926 0.950695V2.91945V10.1382C14.3926 11.3468 13.2168 12.3257 11.7676 12.3257C10.3184 12.3257 9.14258 11.3468 9.14258 10.1382C9.14258 8.9296 10.3184 7.9507 11.7676 7.9507C12.0738 7.9507 12.3691 7.99445 12.6426 8.07648V4.09523L5.64258 6.19523V11.8882C5.64258 13.0968 4.4668 14.0757 3.01758 14.0757C1.56836 14.0757 0.392578 13.0968 0.392578 11.8882C0.392578 10.6796 1.56836 9.7007 3.01758 9.7007C3.32383 9.7007 3.61914 9.74445 3.89258 9.82648V5.54445V3.5757C3.89258 3.19015 4.14688 2.84835 4.51602 2.73624L13.266 0.111242C13.5312 0.0319454 13.8184 0.0811642 14.0398 0.247961Z" fill="#737373"/>
</svg>
