<svg width="24" height="24" viewBox="0 0 24 24" fill="none" xmlns="http://www.w3.org/2000/svg">
<g clip-path="url(#clip0_1_4980)">
<path d="M4.66406 6.7875L8.37656 10.5L12.8766 15L17.2125 19.3359C15.7453 20.3859 13.9453 21 12 21C7.03125 21 3 16.9688 3 12C3 10.0547 3.61406 8.25469 4.66406 6.7875ZM15.6234 13.5L14.1234 12H18V13.5H15.6234ZM17.1234 15H18.75C19.1625 15 19.5 14.6625 19.5 14.25V11.25C19.5 10.8375 19.1625 10.5 18.75 10.5H12.6234L6.7875 4.66406C8.25469 3.61406 10.0547 3 12 3C16.9688 3 21 7.03125 21 12C21 13.9453 20.3859 15.7453 19.3359 17.2125L17.1234 15ZM12 24C15.1826 24 18.2348 22.7357 20.4853 20.4853C22.7357 18.2348 24 15.1826 24 12C24 8.8174 22.7357 5.76516 20.4853 3.51472C18.2348 1.26428 15.1826 0 12 0C8.8174 0 5.76516 1.26428 3.51472 3.51472C1.26428 5.76516 0 8.8174 0 12C0 15.1826 1.26428 18.2348 3.51472 20.4853C5.76516 22.7357 8.8174 24 12 24ZM12.75 4.5C12.3375 4.5 12 4.8375 12 5.25C12 6.49219 13.0078 7.5 14.25 7.5H15.75C16.1625 7.5 16.5 7.8375 16.5 8.25C16.5 8.6625 16.8375 9 17.25 9C17.6625 9 18 8.6625 18 8.25C18 7.00781 16.9922 6 15.75 6H14.25C13.8375 6 13.5 5.6625 13.5 5.25C13.5 4.8375 13.1625 4.5 12.75 4.5ZM10.7578 15L6.25781 10.5H5.25C4.8375 10.5 4.5 10.8375 4.5 11.25V14.25C4.5 14.6625 4.8375 15 5.25 15H10.7578Z" fill="#525252"/>
</g>
<defs>
<clipPath id="clip0_1_4980">
<path d="M0 0H24V24H0V0Z" fill="white"/>
</clipPath>
</defs>
</svg>
