<svg width="34" height="36" viewBox="0 0 34 36" fill="none" xmlns="http://www.w3.org/2000/svg">
<g clip-path="url(#clip0_0_860)">
<g clip-path="url(#clip1_0_860)">
<path d="M17.2501 8C16.5587 8 16.0001 8.55859 16.0001 9.25V9.94922C13.1681 10.3984 11.0001 12.8516 11.0001 15.8125V17.1172C11.0001 18.8906 10.3946 20.6133 9.28917 21.9961L8.70713 22.7266C8.48057 23.0078 8.4376 23.3945 8.59385 23.7188C8.7501 24.043 9.07823 24.25 9.4376 24.25H25.0626C25.422 24.25 25.7501 24.043 25.9064 23.7188C26.0626 23.3945 26.0196 23.0078 25.7931 22.7266L25.211 22C24.1056 20.6133 23.5001 18.8906 23.5001 17.1172V15.8125C23.5001 12.8516 21.3321 10.3984 18.5001 9.94922V9.25C18.5001 8.55859 17.9415 8 17.2501 8ZM17.2501 11.75H17.5626C19.8048 11.75 21.6251 13.5703 21.6251 15.8125V17.1172C21.6251 18.9883 22.1681 20.8125 23.1759 22.375H11.3243C12.3321 20.8125 12.8751 18.9883 12.8751 17.1172V15.8125C12.8751 13.5703 14.6954 11.75 16.9376 11.75H17.2501ZM19.7501 25.5H17.2501H14.7501C14.7501 26.1641 15.0118 26.8008 15.4806 27.2695C15.9493 27.7383 16.586 28 17.2501 28C17.9142 28 18.5509 27.7383 19.0196 27.2695C19.4884 26.8008 19.7501 26.1641 19.7501 25.5Z" fill="black"/>
</g>
</g>
<defs>
<clipPath id="clip0_0_860">
<rect width="17.5" height="20" fill="white" transform="translate(8.5 8)"/>
</clipPath>
<clipPath id="clip1_0_860">
<path d="M8.5 8H26V28H8.5V8Z" fill="white"/>
</clipPath>
</defs>
</svg>
