<svg width="25" height="25" viewBox="0 0 25 25" fill="none" xmlns="http://www.w3.org/2000/svg">
<path d="M22.9333 21.5H2.93335V19.5H3.93335V4.5C3.93335 3.94772 4.38107 3.5 4.93335 3.5H18.9333C19.4856 3.5 19.9333 3.94772 19.9333 4.5V9.5H21.9333V19.5H22.9333V21.5ZM17.9333 19.5H19.9333V11.5H13.9333V19.5H15.9333V13.5H17.9333V19.5ZM17.9333 9.5V5.5H5.93335V19.5H11.9333V9.5H17.9333ZM7.93335 11.5H9.93335V13.5H7.93335V11.5ZM7.93335 15.5H9.93335V17.5H7.93335V15.5ZM7.93335 7.5H9.93335V9.5H7.93335V7.5Z" fill="black"/>
</svg>
