<svg width="24" height="24" viewBox="0 0 24 24" fill="none" xmlns="http://www.w3.org/2000/svg">
<g clip-path="url(#clip0_1_4984)">
<path d="M24 24H0V0H24V24Z" stroke="#E5E7EB"/>
<path d="M10.6173 4.35472C11.2877 6.36566 10.6033 8.39535 9.08922 8.89222C7.57516 9.3891 5.80329 8.16097 5.13297 6.15003C4.46266 4.1391 5.14704 2.10941 6.6611 1.61253C8.17516 1.11566 9.94703 2.34378 10.6173 4.35472ZM4.70641 9.30941C5.59235 10.8282 5.37672 12.5953 4.22828 13.2516C3.07985 13.9078 1.42985 13.2094 0.548598 11.6907C-0.332652 10.1719 -0.126402 8.40472 1.02204 7.74847C2.17047 7.09222 3.82047 7.79066 4.70172 9.30941H4.70641ZM3.24391 18.8063C5.70016 12.1828 10.0642 10.5 12.0002 10.5C13.9361 10.5 18.3002 12.1828 20.7564 18.8063C20.9252 19.261 21.0002 19.7485 21.0002 20.236V20.311C21.0002 21.5203 20.0205 22.5 18.8111 22.5C18.272 22.5 17.7377 22.4344 17.2173 22.3032L13.0923 21.2719C12.3752 21.0938 11.6252 21.0938 10.908 21.2719L6.78297 22.3032C6.26266 22.4344 5.72828 22.5 5.18922 22.5C3.97985 22.5 3.00016 21.5203 3.00016 20.311V20.236C3.00016 19.7485 3.07516 19.261 3.24391 18.8063ZM19.772 13.2516C18.6236 12.5953 18.408 10.8282 19.2939 9.30941C20.1798 7.79066 21.8252 7.09222 22.9736 7.74847C24.122 8.40472 24.3377 10.1719 23.4517 11.6907C22.5658 13.2094 20.9205 13.9078 19.772 13.2516ZM14.5361 8.89222C13.022 8.39535 12.3377 6.36566 13.008 4.35472C13.6783 2.34378 15.4502 1.11566 16.9642 1.61253C18.4783 2.10941 19.1627 4.1391 18.4923 6.15003C17.822 8.16097 16.0502 9.3891 14.5361 8.89222Z" fill="#525252"/>
</g>
<defs>
<clipPath id="clip0_1_4984">
<rect width="24" height="24" fill="white"/>
</clipPath>
</defs>
</svg>
