<svg width="12" height="16" viewBox="0 0 12 16" fill="none" xmlns="http://www.w3.org/2000/svg">
<g clip-path="url(#clip0_1_6471)">
<path d="M3.4816 9.24678C3.37223 9.84678 2.93785 12.6437 2.80973 13.4343C2.80035 13.4905 2.77848 13.5124 2.71598 13.5124H0.384726C0.147226 13.5124 -0.0246494 13.3062 0.00660062 13.078L1.83785 1.45616C1.88473 1.15616 2.15348 0.928034 2.46285 0.928034C7.22223 0.928034 7.62223 0.812409 8.83785 1.28428C10.716 2.01241 10.8879 3.76866 10.2129 5.66866C9.54098 7.62491 7.94723 8.46553 5.83473 8.49053C4.47848 8.51241 3.66285 8.27178 3.4816 9.24678ZM11.1597 4.74991C11.1035 4.70928 11.0816 4.69366 11.066 4.79053C11.0035 5.14678 10.9066 5.49366 10.791 5.84053C9.5441 9.39678 6.08785 9.08741 4.40035 9.08741C4.20973 9.08741 4.08473 9.19053 4.05973 9.38116C3.35348 13.7687 3.21285 14.6843 3.21285 14.6843C3.1816 14.9062 3.32223 15.0874 3.5441 15.0874H5.52848C5.79723 15.0874 6.0191 14.8905 6.07223 14.6218C6.0941 14.453 6.03785 14.8124 6.52223 11.7687C6.66598 11.0812 6.9691 11.153 7.43785 11.153C9.6566 11.153 11.3879 10.253 11.9035 7.64366C12.1066 6.55616 12.0472 5.41241 11.1597 4.74991Z" fill="black"/>
</g>
<defs>
<clipPath id="clip0_1_6471">
<path d="M0 0H12V16H0V0Z" fill="white"/>
</clipPath>
</defs>
</svg>
