<svg width="31" height="24" viewBox="0 0 31 24" fill="none" xmlns="http://www.w3.org/2000/svg">
<g clip-path="url(#clip0_0_776)">
<path d="M7.25 0C8.24456 0 9.19839 0.395088 9.90165 1.09835C10.6049 1.80161 11 2.75544 11 3.75C11 4.74456 10.6049 5.69839 9.90165 6.40165C9.19839 7.10491 8.24456 7.5 7.25 7.5C6.25544 7.5 5.30161 7.10491 4.59835 6.40165C3.89509 5.69839 3.5 4.74456 3.5 3.75C3.5 2.75544 3.89509 1.80161 4.59835 1.09835C5.30161 0.395088 6.25544 0 7.25 0ZM24.5 0C25.4946 0 26.4484 0.395088 27.1516 1.09835C27.8549 1.80161 28.25 2.75544 28.25 3.75C28.25 4.74456 27.8549 5.69839 27.1516 6.40165C26.4484 7.10491 25.4946 7.5 24.5 7.5C23.5054 7.5 22.5516 7.10491 21.8484 6.40165C21.1451 5.69839 20.75 4.74456 20.75 3.75C20.75 2.75544 21.1451 1.80161 21.8484 1.09835C22.5516 0.395088 23.5054 0 24.5 0ZM0.5 14.0016C0.5 11.2406 2.74062 9 5.50156 9H7.50312C8.24844 9 8.95625 9.16406 9.59375 9.45469C9.53281 9.79219 9.50469 10.1438 9.50469 10.5C9.50469 12.2906 10.2922 13.8984 11.5344 15C11.525 15 11.5156 15 11.5016 15H1.49844C0.95 15 0.5 14.55 0.5 14.0016ZM19.4984 15C19.4891 15 19.4797 15 19.4656 15C20.7125 13.8984 21.4953 12.2906 21.4953 10.5C21.4953 10.1438 21.4625 9.79688 21.4062 9.45469C22.0438 9.15938 22.7516 9 23.4969 9H25.4984C28.2594 9 30.5 11.2406 30.5 14.0016C30.5 14.5547 30.05 15 29.5016 15H19.4984ZM11 10.5C11 9.30653 11.4741 8.16193 12.318 7.31802C13.1619 6.47411 14.3065 6 15.5 6C16.6935 6 17.8381 6.47411 18.682 7.31802C19.5259 8.16193 20 9.30653 20 10.5C20 11.6935 19.5259 12.8381 18.682 13.682C17.8381 14.5259 16.6935 15 15.5 15C14.3065 15 13.1619 14.5259 12.318 13.682C11.4741 12.8381 11 11.6935 11 10.5ZM6.5 22.7484C6.5 19.2984 9.29844 16.5 12.7484 16.5H18.2516C21.7016 16.5 24.5 19.2984 24.5 22.7484C24.5 23.4375 23.9422 24 23.2484 24H7.75156C7.0625 24 6.5 23.4422 6.5 22.7484Z" fill="black"/>
</g>
<defs>
<clipPath id="clip0_0_776">
<path d="M0.5 0H30.5V24H0.5V0Z" fill="white"/>
</clipPath>
</defs>
</svg>
