<svg width="90" height="16" viewBox="0 0 90 16" fill="none" xmlns="http://www.w3.org/2000/svg">
<path d="M90 16H0V0H90V16Z" stroke="#E5E7EB"/>
<g clip-path="url(#clip0_1_2592)">
<g clip-path="url(#clip1_1_2592)">
<path d="M9.90352 0.5625C9.7379 0.21875 9.3879 0 9.00352 0C8.61915 0 8.27227 0.21875 8.10352 0.5625L6.09415 4.69688L1.60665 5.35938C1.23165 5.41563 0.919147 5.67812 0.803522 6.0375C0.687897 6.39687 0.781647 6.79375 1.0504 7.05937L4.30665 10.2812L3.5379 14.8344C3.4754 15.2094 3.63165 15.5906 3.94102 15.8125C4.2504 16.0344 4.65977 16.0625 4.99727 15.8844L9.00665 13.7437L13.016 15.8844C13.3535 16.0625 13.7629 16.0375 14.0723 15.8125C14.3816 15.5875 14.5379 15.2094 14.4754 14.8344L13.7035 10.2812L16.9598 7.05937C17.2285 6.79375 17.3254 6.39687 17.2066 6.0375C17.0879 5.67812 16.7785 5.41563 16.4035 5.35938L11.9129 4.69688L9.90352 0.5625Z" fill="#404040"/>
</g>
</g>
<g clip-path="url(#clip2_1_2592)">
<g clip-path="url(#clip3_1_2592)">
<path d="M27.9035 0.5625C27.7379 0.21875 27.3879 0 27.0035 0C26.6191 0 26.2723 0.21875 26.1035 0.5625L24.0941 4.69688L19.6066 5.35938C19.2316 5.41563 18.9191 5.67812 18.8035 6.0375C18.6879 6.39687 18.7816 6.79375 19.0504 7.05937L22.3066 10.2812L21.5379 14.8344C21.4754 15.2094 21.6316 15.5906 21.941 15.8125C22.2504 16.0344 22.6598 16.0625 22.9973 15.8844L27.0066 13.7437L31.016 15.8844C31.3535 16.0625 31.7629 16.0375 32.0723 15.8125C32.3816 15.5875 32.5379 15.2094 32.4754 14.8344L31.7035 10.2812L34.9598 7.05937C35.2285 6.79375 35.3254 6.39687 35.2066 6.0375C35.0879 5.67812 34.7785 5.41563 34.4035 5.35938L29.9129 4.69688L27.9035 0.5625Z" fill="#404040"/>
</g>
</g>
<g clip-path="url(#clip4_1_2592)">
<g clip-path="url(#clip5_1_2592)">
<path d="M45.9035 0.5625C45.7379 0.21875 45.3879 0 45.0035 0C44.6191 0 44.2723 0.21875 44.1035 0.5625L42.0941 4.69688L37.6066 5.35938C37.2316 5.41563 36.9191 5.67812 36.8035 6.0375C36.6879 6.39687 36.7816 6.79375 37.0504 7.05937L40.3066 10.2812L39.5379 14.8344C39.4754 15.2094 39.6316 15.5906 39.941 15.8125C40.2504 16.0344 40.6598 16.0625 40.9973 15.8844L45.0066 13.7437L49.016 15.8844C49.3535 16.0625 49.7629 16.0375 50.0723 15.8125C50.3816 15.5875 50.5379 15.2094 50.4754 14.8344L49.7035 10.2812L52.9598 7.05937C53.2285 6.79375 53.3254 6.39687 53.2066 6.0375C53.0879 5.67812 52.7785 5.41563 52.4035 5.35938L47.9129 4.69688L45.9035 0.5625Z" fill="#404040"/>
</g>
</g>
<g clip-path="url(#clip6_1_2592)">
<g clip-path="url(#clip7_1_2592)">
<path d="M63.9035 0.5625C63.7379 0.21875 63.3879 0 63.0035 0C62.6191 0 62.2723 0.21875 62.1035 0.5625L60.0941 4.69688L55.6066 5.35938C55.2316 5.41563 54.9191 5.67812 54.8035 6.0375C54.6879 6.39687 54.7816 6.79375 55.0504 7.05937L58.3066 10.2812L57.5379 14.8344C57.4754 15.2094 57.6316 15.5906 57.941 15.8125C58.2504 16.0344 58.6598 16.0625 58.9973 15.8844L63.0066 13.7437L67.016 15.8844C67.3535 16.0625 67.7629 16.0375 68.0723 15.8125C68.3816 15.5875 68.5379 15.2094 68.4754 14.8344L67.7035 10.2812L70.9598 7.05937C71.2285 6.79375 71.3254 6.39687 71.2066 6.0375C71.0879 5.67812 70.7785 5.41563 70.4035 5.35938L65.9129 4.69688L63.9035 0.5625Z" fill="#404040"/>
</g>
</g>
<g clip-path="url(#clip8_1_2592)">
<g clip-path="url(#clip9_1_2592)">
<path d="M80.9966 0C81.2841 0 81.5466 0.1625 81.6716 0.421875L83.8154 4.8375L88.6029 5.54375C88.8841 5.58437 89.1185 5.78125 89.206 6.05312C89.2935 6.325 89.2216 6.61875 89.0216 6.81875L85.5497 10.2625L86.3685 15.125C86.4154 15.4062 86.2997 15.6906 86.0685 15.8594C85.8372 16.0281 85.5279 16.0469 85.2779 15.9125L80.9966 13.625L76.7185 15.9094C76.4654 16.0438 76.1591 16.025 75.9279 15.8562C75.6966 15.6875 75.5779 15.4031 75.6247 15.1219L76.4435 10.2594L72.9716 6.81875C72.7685 6.61875 72.6997 6.32188 72.7872 6.05312C72.8747 5.78437 73.1091 5.5875 73.3904 5.54375L78.1779 4.8375L80.3216 0.421875C80.4497 0.1625 80.7091 0 80.9966 0ZM80.9966 2.46875L79.356 5.85C79.2466 6.07188 79.0372 6.22813 78.7904 6.26562L75.0935 6.80937L77.7779 9.46875C77.9497 9.64062 78.031 9.88437 77.9904 10.125L77.356 13.8656L80.6435 12.1094C80.8654 11.9906 81.131 11.9906 81.3497 12.1094L84.6372 13.8656L84.006 10.1281C83.9654 9.8875 84.0435 9.64375 84.2185 9.47188L86.9029 6.8125L83.206 6.26562C82.9622 6.22813 82.7497 6.075 82.6404 5.85L80.9966 2.46875Z" fill="#404040"/>
</g>
</g>
<defs>
<clipPath id="clip0_1_2592">
<rect width="18" height="16" fill="white"/>
</clipPath>
<clipPath id="clip1_1_2592">
<path d="M0 0H18V16H0V0Z" fill="white"/>
</clipPath>
<clipPath id="clip2_1_2592">
<rect width="18" height="16" fill="white" transform="translate(18)"/>
</clipPath>
<clipPath id="clip3_1_2592">
<path d="M18 0H36V16H18V0Z" fill="white"/>
</clipPath>
<clipPath id="clip4_1_2592">
<rect width="18" height="16" fill="white" transform="translate(36)"/>
</clipPath>
<clipPath id="clip5_1_2592">
<path d="M36 0H54V16H36V0Z" fill="white"/>
</clipPath>
<clipPath id="clip6_1_2592">
<rect width="18" height="16" fill="white" transform="translate(54)"/>
</clipPath>
<clipPath id="clip7_1_2592">
<path d="M54 0H72V16H54V0Z" fill="white"/>
</clipPath>
<clipPath id="clip8_1_2592">
<rect width="18" height="16" fill="white" transform="translate(72)"/>
</clipPath>
<clipPath id="clip9_1_2592">
<path d="M72 0H90V16H72V0Z" fill="white"/>
</clipPath>
</defs>
</svg>
