<svg width="25" height="24" viewBox="0 0 25 24" fill="none" xmlns="http://www.w3.org/2000/svg">
<g clip-path="url(#clip0_1_2186)">
<path d="M9.42969 3.225L11.0609 6H11H7.625C6.58906 6 5.75 5.16094 5.75 4.125C5.75 3.08906 6.58906 2.25 7.625 2.25H7.72812C8.42656 2.25 9.07812 2.62031 9.42969 3.225ZM3.5 4.125C3.5 4.8 3.66406 5.4375 3.95 6H2C1.17031 6 0.5 6.67031 0.5 7.5V10.5C0.5 11.3297 1.17031 12 2 12H23C23.8297 12 24.5 11.3297 24.5 10.5V7.5C24.5 6.67031 23.8297 6 23 6H21.05C21.3359 5.4375 21.5 4.8 21.5 4.125C21.5 1.84688 19.6531 0 17.375 0H17.2719C15.7766 0 14.3891 0.792188 13.6297 2.08125L12.5 4.00781L11.3703 2.08594C10.6109 0.792187 9.22344 0 7.72812 0H7.625C5.34688 0 3.5 1.84688 3.5 4.125ZM19.25 4.125C19.25 5.16094 18.4109 6 17.375 6H14H13.9391L15.5703 3.225C15.9266 2.62031 16.5734 2.25 17.2719 2.25H17.375C18.4109 2.25 19.25 3.08906 19.25 4.125ZM2 13.5V21.75C2 22.9922 3.00781 24 4.25 24H11V13.5H2ZM14 24H20.75C21.9922 24 23 22.9922 23 21.75V13.5H14V24Z" fill="#404040"/>
</g>
<defs>
<clipPath id="clip0_1_2186">
<path d="M0.5 0H24.5V24H0.5V0Z" fill="white"/>
</clipPath>
</defs>
</svg>
