<svg width="19" height="29" viewBox="0 0 19 29" fill="none" xmlns="http://www.w3.org/2000/svg">
<path d="M18.5 29H0.5V0H18.5V29Z" stroke="#E5E7EB"/>
<g clip-path="url(#clip0_1_3761)">
<path d="M3.5 2C1.84531 2 0.5 3.34531 0.5 5V23C0.5 24.6547 1.84531 26 3.5 26H15.5C17.1547 26 18.5 24.6547 18.5 23V9.5H12.5C11.6703 9.5 11 8.82969 11 8V2H3.5ZM12.5 2V8H18.5L12.5 2ZM4.25 5H7.25C7.6625 5 8 5.3375 8 5.75C8 6.1625 7.6625 6.5 7.25 6.5H4.25C3.8375 6.5 3.5 6.1625 3.5 5.75C3.5 5.3375 3.8375 5 4.25 5ZM4.25 8H7.25C7.6625 8 8 8.3375 8 8.75C8 9.1625 7.6625 9.5 7.25 9.5H4.25C3.8375 9.5 3.5 9.1625 3.5 8.75C3.5 8.3375 3.8375 8 4.25 8ZM5 12.5H14C14.8297 12.5 15.5 13.1703 15.5 14V17C15.5 17.8297 14.8297 18.5 14 18.5H5C4.17031 18.5 3.5 17.8297 3.5 17V14C3.5 13.1703 4.17031 12.5 5 12.5ZM5 14V17H14V14H5ZM11.75 21.5H14.75C15.1625 21.5 15.5 21.8375 15.5 22.25C15.5 22.6625 15.1625 23 14.75 23H11.75C11.3375 23 11 22.6625 11 22.25C11 21.8375 11.3375 21.5 11.75 21.5Z" fill="black"/>
</g>
<defs>
<clipPath id="clip0_1_3761">
<path d="M0.5 2H18.5V26H0.5V2Z" fill="white"/>
</clipPath>
</defs>
</svg>
