<svg width="17" height="16" viewBox="0 0 17 16" fill="none" xmlns="http://www.w3.org/2000/svg">
<g clip-path="url(#clip0_1_1249)">
<path d="M12.3344 12.8906L3.96875 4.525C3.26875 5.50313 2.85938 6.70312 2.85938 8C2.85938 11.3125 5.54688 14 8.85938 14C10.1562 14 11.3563 13.5906 12.3344 12.8906ZM13.75 11.475C14.45 10.4969 14.8594 9.29688 14.8594 8C14.8594 4.6875 12.1719 2 8.85938 2C7.5625 2 6.3625 2.40937 5.38438 3.10938L13.75 11.475ZM0.859375 8C0.859375 5.87827 1.70223 3.84344 3.20252 2.34315C4.70281 0.842855 6.73764 0 8.85938 0C10.9811 0 13.0159 0.842855 14.5162 2.34315C16.0165 3.84344 16.8594 5.87827 16.8594 8C16.8594 10.1217 16.0165 12.1566 14.5162 13.6569C13.0159 15.1571 10.9811 16 8.85938 16C6.73764 16 4.70281 15.1571 3.20252 13.6569C1.70223 12.1566 0.859375 10.1217 0.859375 8Z" fill="black"/>
</g>
<defs>
<clipPath id="clip0_1_1249">
<path d="M0.859375 0H16.8594V16H0.859375V0Z" fill="white"/>
</clipPath>
</defs>
</svg>
