<svg width="30" height="32" viewBox="0 0 30 32" fill="none" xmlns="http://www.w3.org/2000/svg">
<path d="M15 0C23.2843 0 30 6.71573 30 15V17C30 25.2843 23.2843 32 15 32C6.71573 32 0 25.2843 0 17V15C0 6.71573 6.71573 0 15 0Z" fill="#F5F5F5"/>
<path d="M15 0C23.2843 0 30 6.71573 30 15V17C30 25.2843 23.2843 32 15 32C6.71573 32 0 25.2843 0 17V15C0 6.71573 6.71573 0 15 0Z" stroke="#E5E7EB"/>
<path d="M22 26H8V6H22V26Z" stroke="#E5E7EB"/>
<g clip-path="url(#clip0_1_3874)">
<path d="M21.7063 12.7062C22.0969 12.3155 22.0969 11.6812 21.7063 11.2905L18.7063 8.29053C18.3156 7.8999 17.6812 7.8999 17.2906 8.29053C16.9 8.68115 16.9 9.31553 17.2906 9.70615L18.5844 10.9999H9C8.44687 10.9999 8 11.4468 8 11.9999C8 12.553 8.44687 12.9999 9 12.9999H18.5844L17.2906 14.2937C16.9 14.6843 16.9 15.3187 17.2906 15.7093C17.6812 16.0999 18.3156 16.0999 18.7063 15.7093L21.7063 12.7093V12.7062ZM11.2906 23.7062C11.6813 24.0968 12.3156 24.0968 12.7063 23.7062C13.0969 23.3155 13.0969 22.6812 12.7063 22.2905L11.4156 20.9999H21C21.5531 20.9999 22 20.553 22 19.9999C22 19.4468 21.5531 18.9999 21 18.9999H11.4156L12.7094 17.7062C13.1 17.3155 13.1 16.6812 12.7094 16.2905C12.3187 15.8999 11.6844 15.8999 11.2938 16.2905L8.29375 19.2905C7.90312 19.6812 7.90312 20.3155 8.29375 20.7062L11.2938 23.7062H11.2906Z" fill="#525252"/>
</g>
<defs>
<clipPath id="clip0_1_3874">
<path d="M8 8H22V24H8V8Z" fill="white"/>
</clipPath>
</defs>
</svg>
