<svg width="17" height="16" viewBox="0 0 17 16" fill="none" xmlns="http://www.w3.org/2000/svg">
<path d="M16.2656 16H0.265625V0H16.2656V16Z" stroke="#E5E7EB"/>
<g clip-path="url(#clip0_1_5466)">
<path d="M8.26642 1C8.71017 1 9.11955 1.23437 9.34455 1.61875L16.0946 13.1187C16.3227 13.5062 16.3227 13.9844 16.1008 14.3719C15.8789 14.7594 15.4633 15 15.0164 15H1.51642C1.06955 15 0.653925 14.7594 0.43205 14.3719C0.210175 13.9844 0.2133 13.5031 0.4383 13.1187L7.1883 1.61875C7.4133 1.23437 7.82267 1 8.26642 1ZM8.26642 5C7.8508 5 7.51642 5.33437 7.51642 5.75V9.25C7.51642 9.66562 7.8508 10 8.26642 10C8.68205 10 9.01643 9.66562 9.01643 9.25V5.75C9.01643 5.33437 8.68205 5 8.26642 5ZM9.26643 12C9.26643 11.7348 9.16107 11.4804 8.97353 11.2929C8.786 11.1054 8.53164 11 8.26642 11C8.00121 11 7.74685 11.1054 7.55932 11.2929C7.37178 11.4804 7.26642 11.7348 7.26642 12C7.26642 12.2652 7.37178 12.5196 7.55932 12.7071C7.74685 12.8946 8.00121 13 8.26642 13C8.53164 13 8.786 12.8946 8.97353 12.7071C9.16107 12.5196 9.26643 12.2652 9.26643 12Z" fill="#525252"/>
</g>
<defs>
<clipPath id="clip0_1_5466">
<path d="M0.265625 0H16.2656V16H0.265625V0Z" fill="white"/>
</clipPath>
</defs>
</svg>
