<svg width="17" height="17" viewBox="0 0 17 17" fill="none" xmlns="http://www.w3.org/2000/svg">
<g clip-path="url(#clip0_1_4430)">
<path d="M13.3926 6.57568C13.3926 8.01006 12.927 9.33506 12.1426 10.4101L16.0988 14.3694C16.4895 14.7601 16.4895 15.3944 16.0988 15.7851C15.7082 16.1757 15.0738 16.1757 14.6832 15.7851L10.727 11.8257C9.65195 12.6132 8.32695 13.0757 6.89258 13.0757C3.30195 13.0757 0.392578 10.1663 0.392578 6.57568C0.392578 2.98506 3.30195 0.0756836 6.89258 0.0756836C10.4832 0.0756836 13.3926 2.98506 13.3926 6.57568ZM6.89258 11.0757C7.48353 11.0757 8.06869 10.9593 8.61465 10.7331C9.16062 10.507 9.65669 10.1755 10.0746 9.75766C10.4924 9.3398 10.8239 8.84372 11.05 8.29776C11.2762 7.75179 11.3926 7.16663 11.3926 6.57568C11.3926 5.98474 11.2762 5.39957 11.05 4.85361C10.8239 4.30764 10.4924 3.81157 10.0746 3.3937C9.65669 2.97584 9.16062 2.64437 8.61465 2.41823C8.06869 2.19208 7.48353 2.07568 6.89258 2.07568C6.30163 2.07568 5.71647 2.19208 5.1705 2.41823C4.62454 2.64437 4.12846 2.97584 3.7106 3.3937C3.29273 3.81157 2.96127 4.30764 2.73512 4.85361C2.50897 5.39957 2.39258 5.98474 2.39258 6.57568C2.39258 7.16663 2.50897 7.75179 2.73512 8.29776C2.96127 8.84372 3.29273 9.3398 3.7106 9.75766C4.12846 10.1755 4.62454 10.507 5.1705 10.7331C5.71647 10.9593 6.30163 11.0757 6.89258 11.0757Z" fill="#A3A3A3"/>
</g>
<defs>
<clipPath id="clip0_1_4430">
<path d="M0.392578 0.0756836H16.3926V16.0757H0.392578V0.0756836Z" fill="white"/>
</clipPath>
</defs>
</svg>
