<svg width="21" height="40" viewBox="0 0 21 40" fill="none" xmlns="http://www.w3.org/2000/svg">
<path d="M10.5 0C16.299 0 21 4.70101 21 10.5V29.5C21 35.299 16.299 40 10.5 40C4.70101 40 0 35.299 0 29.5V10.5C0 4.70101 4.70101 0 10.5 0Z" fill="#262626"/>
<path d="M10.5 0C16.299 0 21 4.70101 21 10.5V29.5C21 35.299 16.299 40 10.5 40C4.70101 40 0 35.299 0 29.5V10.5C0 4.70101 4.70101 0 10.5 0Z" stroke="#E5E7EB"/>
<path d="M18.5 28H2.5V12H18.5V28Z" stroke="#E5E7EB"/>
<g clip-path="url(#clip0_1_3516)">
<path d="M18.0655 12.1751C18.3811 12.3939 18.5467 12.772 18.4873 13.1501L16.4873 26.1501C16.4405 26.4532 16.2561 26.7189 15.9873 26.8689C15.7186 27.0189 15.3967 27.0376 15.1123 26.9189L11.3748 25.3657L9.23421 27.6814C8.95609 27.9845 8.51859 28.0845 8.13421 27.9345C7.74984 27.7845 7.49984 27.4126 7.49984 27.0001V24.3876C7.49984 24.2626 7.54671 24.1439 7.63109 24.0532L12.8686 18.3376C13.0498 18.1407 13.0436 17.8376 12.8561 17.6501C12.6686 17.4626 12.3655 17.4501 12.1686 17.6282L5.81234 23.2751L3.05296 21.8939C2.72171 21.7282 2.50921 21.397 2.49984 21.0282C2.49046 20.6595 2.68421 20.3157 3.00296 20.1314L17.003 12.1314C17.3373 11.9407 17.7498 11.9595 18.0655 12.1751Z" fill="white"/>
</g>
<defs>
<clipPath id="clip0_1_3516">
<path d="M2.5 12H18.5V28H2.5V12Z" fill="white"/>
</clipPath>
</defs>
</svg>
