<svg width="25" height="24" viewBox="0 0 25 24" fill="none" xmlns="http://www.w3.org/2000/svg">
<g clip-path="url(#clip0_0_771)">
<path d="M4.01562 3.51562L2.42188 1.92188C1.71406 1.21406 0.5 1.71563 0.5 2.71406V7.875C0.5 8.49844 1.00156 9 1.625 9H6.78594C7.78906 9 8.29063 7.78594 7.58281 7.07812L6.13906 5.63437C7.76562 4.00781 10.0156 3 12.5 3C17.4688 3 21.5 7.03125 21.5 12C21.5 16.9688 17.4688 21 12.5 21C10.5875 21 8.81563 20.4047 7.35781 19.3875C6.67813 18.9141 5.74531 19.0781 5.26719 19.7578C4.78906 20.4375 4.95781 21.3703 5.6375 21.8484C7.5875 23.2031 9.95469 24 12.5 24C19.1281 24 24.5 18.6281 24.5 12C24.5 5.37188 19.1281 0 12.5 0C9.18594 0 6.18594 1.34531 4.01562 3.51562ZM12.5 6C11.8766 6 11.375 6.50156 11.375 7.125V12C11.375 12.3 11.4922 12.5859 11.7031 12.7969L15.0781 16.1719C15.5188 16.6125 16.2312 16.6125 16.6672 16.1719C17.1031 15.7312 17.1078 15.0188 16.6672 14.5828L13.6203 11.5359V7.125C13.6203 6.50156 13.1187 6 12.4953 6H12.5Z" fill="black"/>
</g>
<defs>
<clipPath id="clip0_0_771">
<rect width="24" height="24" fill="white" transform="translate(0.5)"/>
</clipPath>
</defs>
</svg>
