<svg width="358" height="8" viewBox="0 0 358 8" fill="none" xmlns="http://www.w3.org/2000/svg">
<path d="M354 0C356.209 0 358 1.79086 358 4C358 6.20914 356.209 8 354 8H4C1.79086 8 0 6.20914 0 4C0 1.79086 1.79086 0 4 0H354Z" fill="#E5E5E5"/>
<path d="M354 0C356.209 0 358 1.79086 358 4C358 6.20914 356.209 8 354 8H4C1.79086 8 0 6.20914 0 4C0 1.79086 1.79086 0 4 0H354Z" stroke="#E5E7EB"/>
<path d="M264.5 0C266.709 0 268.5 1.79086 268.5 4C268.5 6.20914 266.709 8 264.5 8H4C1.79086 8 0 6.20914 0 4C0 1.79086 1.79086 0 4 0H264.5Z" fill="#525252"/>
<path d="M264.5 0C266.709 0 268.5 1.79086 268.5 4C268.5 6.20914 266.709 8 264.5 8H4C1.79086 8 0 6.20914 0 4C0 1.79086 1.79086 0 4 0H264.5Z" stroke="#E5E7EB"/>
</svg>
