<svg width="14" height="13" viewBox="0 0 14 13" fill="none" xmlns="http://www.w3.org/2000/svg">
<g clip-path="url(#clip0_1_4018)">
<path d="M7.81949 0.497559C7.69527 0.239746 7.43277 0.0756836 7.14449 0.0756836C6.85621 0.0756836 6.59605 0.239746 6.46949 0.497559L4.96246 3.59834L1.59683 4.09521C1.31558 4.1374 1.08121 4.33428 0.994487 4.60381C0.907768 4.87334 0.978081 5.171 1.17964 5.37021L3.62183 7.78662L3.04527 11.2015C2.99839 11.4827 3.11558 11.7687 3.34761 11.9351C3.57964 12.1015 3.88667 12.1226 4.1398 11.989L7.14683 10.3835L10.1539 11.989C10.407 12.1226 10.714 12.1038 10.946 11.9351C11.1781 11.7663 11.2953 11.4827 11.2484 11.2015L10.6695 7.78662L13.1117 5.37021C13.3132 5.171 13.3859 4.87334 13.2968 4.60381C13.2078 4.33428 12.9757 4.1374 12.6945 4.09521L9.32652 3.59834L7.81949 0.497559Z" fill="#525252"/>
</g>
<defs>
<clipPath id="clip0_1_4018">
<path d="M0.392578 0.0756836H13.8926V12.0757H0.392578V0.0756836Z" fill="white"/>
</clipPath>
</defs>
</svg>
