<svg width="23" height="16" viewBox="0 0 23 16" fill="none" xmlns="http://www.w3.org/2000/svg">
<path d="M2.5 0.5C1.12109 0.5 0 1.62109 0 3V5.5C0 5.84375 0.289062 6.11328 0.613281 6.22656C1.34766 6.48047 1.875 7.17969 1.875 8C1.875 8.82031 1.34766 9.51953 0.613281 9.77344C0.289062 9.88672 0 10.1562 0 10.5V13C0 14.3789 1.12109 15.5 2.5 15.5H20C21.3789 15.5 22.5 14.3789 22.5 13V10.5C22.5 10.1562 22.2109 9.88672 21.8867 9.77344C21.1523 9.51953 20.625 8.82031 20.625 8C20.625 7.17969 21.1523 6.48047 21.8867 6.22656C22.2109 6.11328 22.5 5.84375 22.5 5.5V3C22.5 1.62109 21.3789 0.5 20 0.5H2.5ZM5 4.875V11.125C5 11.4688 5.28125 11.75 5.625 11.75H16.875C17.2188 11.75 17.5 11.4688 17.5 11.125V4.875C17.5 4.53125 17.2188 4.25 16.875 4.25H5.625C5.28125 4.25 5 4.53125 5 4.875ZM3.75 4.25C3.75 3.55859 4.30859 3 5 3H17.5C18.1914 3 18.75 3.55859 18.75 4.25V11.75C18.75 12.4414 18.1914 13 17.5 13H5C4.30859 13 3.75 12.4414 3.75 11.75V4.25Z" fill="black"/>
</svg>
