<svg width="17" height="16" viewBox="0 0 17 16" fill="none" xmlns="http://www.w3.org/2000/svg">
<g clip-path="url(#clip0_1_5481)">
<path d="M8.01564 0C8.15939 0 8.30314 0.03125 8.43439 0.090625L14.3188 2.5875C15.0063 2.87813 15.5188 3.55625 15.5156 4.375C15.5 7.475 14.225 13.1469 8.84064 15.725C8.31876 15.975 7.71251 15.975 7.19064 15.725C1.80626 13.1469 0.531264 7.475 0.515639 4.375C0.512514 3.55625 1.02501 2.87813 1.71251 2.5875L7.60001 0.090625C7.72814 0.03125 7.87189 0 8.01564 0ZM8.01564 2.0875V13.9C12.3281 11.8125 13.4875 7.19062 13.5156 4.41875L8.01564 2.0875Z" fill="#525252"/>
</g>
<defs>
<clipPath id="clip0_1_5481">
<path d="M0.015625 0H16.0156V16H0.015625V0Z" fill="white"/>
</clipPath>
</defs>
</svg>
